<svg width="23" height="26" viewBox="0 0 23 26" fill="none" xmlns="http://www.w3.org/2000/svg">
<path d="M14.0181 1.88062H5.14538C4.83634 1.88062 4.56796 2.08763 4.48697 2.38587L2.16287 10.9445C2.04465 11.3798 2.37248 11.8086 2.82363 11.8086H11.4464C11.7487 11.8086 12.0152 11.6103 12.1022 11.3208L14.6725 2.76224C14.8044 2.32289 14.4768 1.88062 14.0181 1.88062Z" fill="url(#paint0_linear_59254_624)"/>
<path d="M17.5356 13.2639C14.6868 13.2646 10.2997 13.2638 8.81163 13.2636C8.50907 13.2636 8.245 13.4622 8.15841 13.7521L5.61466 22.2681C5.48349 22.7072 5.8124 23.1487 6.2707 23.1487L15.0648 23.1487C15.3695 23.1487 15.6375 22.9474 15.7224 22.6548L18.1922 14.1394C18.3193 13.7013 17.9918 13.2638 17.5356 13.2639Z" fill="url(#paint1_linear_59254_624)"/>
<path d="M19.816 6.24513C18.2096 6.24554 15.7453 6.2451 14.8931 6.24498C14.7168 6.24495 14.5633 6.36377 14.5184 6.53432L13.2662 11.286C13.2019 11.53 13.3836 11.7696 13.6359 11.7734L18.4469 11.8469C18.623 11.8496 18.7789 11.7335 18.8267 11.564L20.1893 6.73928C20.2593 6.49128 20.0737 6.24506 19.816 6.24513Z" fill="url(#paint2_linear_59254_624)"/>
<path d="M6.73494 13.2637C5.14448 13.2641 2.67816 13.2637 1.83621 13.2635C1.66184 13.2635 1.51058 13.3797 1.46371 13.5476L0.140041 18.2908C0.0709285 18.5385 0.257129 18.7838 0.514249 18.7838L5.44001 18.7838C5.61519 18.7838 5.7687 18.6665 5.81481 18.4975L7.10903 13.7545C7.17649 13.5073 6.9912 13.2636 6.73494 13.2637Z" fill="url(#paint3_linear_59254_624)"/>
<defs>
<linearGradient id="paint0_linear_59254_624" x1="8.43275" y1="1.88062" x2="8.43275" y2="11.8086" gradientUnits="userSpaceOnUse">
<stop stop-color="#03F9B0"/>
<stop offset="1" stop-color="#11EBD3"/>
</linearGradient>
<linearGradient id="paint1_linear_59254_624" x1="11.8967" y1="13.2619" x2="11.9011" y2="23.1504" gradientUnits="userSpaceOnUse">
<stop stop-color="#13E5E4"/>
<stop offset="1" stop-color="#19DCFF"/>
</linearGradient>
<linearGradient id="paint2_linear_59254_624" x1="16.7331" y1="6.24399" x2="16.7356" y2="11.8523" gradientUnits="userSpaceOnUse">
<stop stop-color="#0DEED0"/>
<stop offset="1" stop-color="#10E8D9"/>
</linearGradient>
<linearGradient id="paint3_linear_59254_624" x1="3.6215" y1="13.2625" x2="3.62398" y2="18.7847" gradientUnits="userSpaceOnUse">
<stop stop-color="#0EEDD0"/>
<stop offset="1" stop-color="#18E3E5"/>
</linearGradient>
</defs>
</svg>
