<svg width="21" height="22" viewBox="0 0 21 22" fill="none" xmlns="http://www.w3.org/2000/svg">
<path d="M14.0176 0.338623H5.14489C4.83585 0.338623 4.56747 0.545642 4.48649 0.84388L2.16239 9.40247C2.04416 9.83785 2.37199 10.2666 2.82314 10.2666H11.4459C11.7482 10.2666 12.0148 10.0683 12.1017 9.77883L14.672 1.22025C14.804 0.780901 14.4764 0.338623 14.0176 0.338623Z" fill="white"/>
<path d="M17.5351 11.7219C14.6863 11.7226 10.2992 11.7218 8.81114 11.7216C8.50859 11.7216 8.24451 11.9202 8.15792 12.2101L5.61417 20.7261C5.483 21.1652 5.81191 21.6068 6.27022 21.6068L15.0643 21.6068C15.369 21.6068 15.637 21.4054 15.7219 21.1128L18.1917 12.5974C18.3188 12.1593 17.9913 11.7218 17.5351 11.7219Z" fill="white"/>
<path d="M19.8165 4.70313C18.2101 4.70355 15.7458 4.70311 14.8936 4.70299C14.7172 4.70296 14.5638 4.82178 14.5189 4.99232L13.2666 9.74397C13.2023 9.98798 13.3841 10.2276 13.6364 10.2314L18.4474 10.3049C18.6235 10.3076 18.7794 10.1915 18.8272 10.022L20.1898 5.19728C20.2598 4.94929 20.0742 4.70307 19.8165 4.70313Z" fill="white"/>
<path d="M6.73494 11.7217C5.14448 11.7221 2.67816 11.7217 1.83621 11.7215C1.66184 11.7215 1.51058 11.8377 1.46371 12.0056L0.140041 16.7488C0.0709285 16.9965 0.257129 17.2418 0.514249 17.2418L5.44001 17.2418C5.61519 17.2418 5.7687 17.1245 5.81481 16.9555L7.10903 12.2125C7.17649 11.9653 6.9912 11.7216 6.73494 11.7217Z" fill="white"/>
</svg>
