<svg width="287" height="127" viewBox="0 0 287 127" fill="none" xmlns="http://www.w3.org/2000/svg">
<path d="M82.495 0H29.808C27.9729 0 26.3792 1.2293 25.8983 3.00026L12.0976 53.8219C11.3955 56.4073 13.3422 58.9531 16.0212 58.9531H67.2242C69.0192 58.9531 70.6018 57.776 71.1181 56.0568L86.3809 5.23515C87.1644 2.62629 85.219 0 82.495 0Z" fill="url(#paint0_linear_59002_2114)"/>
<path d="M103.383 67.5946C86.466 67.5989 60.4148 67.5943 51.5787 67.593C49.7821 67.5927 48.214 68.772 47.6998 70.4934L32.5948 121.062C31.8159 123.67 33.769 126.292 36.4905 126.292H88.7106C90.5198 126.292 92.1114 125.096 92.6154 123.359L107.281 72.7935C108.036 70.192 106.091 67.5939 103.383 67.5946Z" fill="url(#paint1_linear_59002_2114)"/>
<path d="M116.925 25.9164C107.386 25.9189 92.7528 25.9163 87.6926 25.9155C86.6453 25.9154 85.7343 26.6209 85.4674 27.6336L78.0315 55.8494C77.6496 57.2983 78.7289 58.7211 80.2271 58.744L108.795 59.1801C109.841 59.1961 110.766 58.5068 111.051 57.5004L119.142 28.8507C119.558 27.3781 118.455 25.916 116.925 25.9164Z" fill="url(#paint2_linear_59002_2114)"/>
<path d="M39.2474 67.5939C29.8031 67.5963 15.1578 67.5941 10.1583 67.5932C9.12282 67.593 8.22463 68.2827 7.9463 69.2801L0.0862563 97.4457C-0.324141 98.9163 0.781529 100.373 2.30833 100.373H31.5579C32.5982 100.373 33.5097 99.6766 33.7836 98.6731L41.4687 70.5085C41.8693 69.0404 40.7691 67.5935 39.2474 67.5939Z" fill="url(#paint3_linear_59002_2114)"/>
<path d="M120.672 92.6532L117.681 68.7232H124.073L125.101 84.4039H125.3L132.006 68.7232H137.218L138.76 84.4389H138.947L145.163 68.7232H151.543L140.618 92.6532H135.044L133.163 78.1409H132.976L126.234 92.6532H120.672Z" fill="#EDF2EC"/>
<path d="M168.783 81.0621C168.347 83.6405 167.49 85.8177 166.212 87.5938C164.942 89.362 163.396 90.7019 161.573 91.6133C159.758 92.5247 157.807 92.9804 155.719 92.9804C153.515 92.9804 151.606 92.4896 149.994 91.5081C148.381 90.5266 147.209 89.0972 146.477 87.2199C145.752 85.3425 145.612 83.064 146.056 80.3844C146.477 77.806 147.322 75.6249 148.592 73.841C149.869 72.0572 151.423 70.7056 153.254 69.7865C155.092 68.8595 157.063 68.396 159.166 68.396C161.355 68.396 163.252 68.8906 164.857 69.8799C166.469 70.8692 167.638 72.3064 168.362 74.1916C169.087 76.0767 169.227 78.3668 168.783 81.0621ZM162.999 80.3844C163.24 78.881 163.24 77.6151 162.999 76.5869C162.765 75.5586 162.306 74.7836 161.62 74.2617C160.935 73.732 160.043 73.4671 158.944 73.4671C157.729 73.4671 156.631 73.767 155.649 74.3668C154.676 74.9588 153.862 75.8235 153.207 76.9608C152.553 78.0903 152.097 79.4574 151.84 81.0621C151.575 82.5811 151.567 83.8469 151.817 84.8596C152.074 85.8722 152.553 86.6356 153.254 87.1498C153.955 87.6561 154.847 87.9093 155.93 87.9093C157.137 87.9093 158.224 87.6171 159.19 87.0329C160.156 86.4487 160.962 85.5957 161.608 84.474C162.263 83.3523 162.726 81.9891 162.999 80.3844Z" fill="#EDF2EC"/>
<path d="M165.954 92.6532L169.927 68.7232H179.812C181.604 68.7232 183.099 69.0464 184.299 69.693C185.499 70.3317 186.352 71.2509 186.858 72.4505C187.364 73.6424 187.481 75.0562 187.208 76.6921C186.944 78.3435 186.352 79.7495 185.432 80.9102C184.521 82.0631 183.345 82.9433 181.904 83.5509C180.47 84.1585 178.842 84.4623 177.019 84.4623H170.768L171.539 79.9053H176.716C177.58 79.9053 178.328 79.7924 178.959 79.5665C179.59 79.3328 180.092 78.9822 180.466 78.5148C180.848 78.0397 181.101 77.4321 181.226 76.6921C181.343 75.952 181.288 75.3405 181.062 74.8576C180.844 74.3668 180.459 74.0007 179.906 73.7592C179.36 73.51 178.659 73.3853 177.802 73.3853H174.951L171.738 92.6532H165.954ZM181.238 81.7164L185.386 92.6532H179.076L175.056 81.7164H181.238Z" fill="#EDF2EC"/>
<path d="M183.72 92.6532L187.692 68.7232H193.476L191.805 78.842H192.121L201.702 68.7232H208.514L198.29 79.4029L204.693 92.6532H197.776L193.43 83.2471L190.578 86.2033L189.504 92.6532H183.72Z" fill="#EDF2EC"/>
<path d="M207.722 92.6532H201.506L213.552 68.7232H221.253L225.354 92.6532H219.138L216.509 74.7524H216.322L207.722 92.6532ZM208.47 83.2354H221.463L220.715 87.6288H207.722L208.47 83.2354Z" fill="#EDF2EC"/>
<path d="M247.992 68.7232L244.019 92.6532H239.111L231.902 78.842H231.738L229.437 92.6532H223.653L227.626 68.7232H232.603L239.754 82.511H239.953L242.22 68.7232H247.992Z" fill="#EDF2EC"/>
<path d="M255.4 68.7232L251.427 92.6532H245.643L249.616 68.7232H255.4Z" fill="#EDF2EC"/>
<path d="M268.835 75.9442C268.897 75.064 268.664 74.3824 268.134 73.8994C267.612 73.4165 266.786 73.175 265.657 73.175C264.909 73.175 264.27 73.2724 263.741 73.4671C263.211 73.6541 262.794 73.9189 262.49 74.2617C262.187 74.5966 261.996 74.9861 261.918 75.4301C261.848 75.7807 261.867 76.0922 261.976 76.3649C262.085 76.6375 262.276 76.879 262.549 77.0893C262.829 77.2997 263.176 77.4827 263.589 77.6385C264.009 77.7943 264.481 77.9306 265.003 78.0475L266.966 78.5148C268.103 78.7719 269.088 79.1147 269.922 79.5431C270.763 79.9637 271.445 80.474 271.967 81.0738C272.488 81.6658 272.847 82.3474 273.042 83.1186C273.236 83.8898 273.252 84.7544 273.088 85.7126C272.839 87.2238 272.243 88.5207 271.301 89.6035C270.366 90.6863 269.143 91.5159 267.632 92.0923C266.128 92.6688 264.379 92.957 262.385 92.957C260.391 92.957 258.697 92.6571 257.302 92.0573C255.916 91.4497 254.911 90.5344 254.288 89.3114C253.665 88.0884 253.497 86.5461 253.785 84.6843H259.312C259.226 85.4555 259.324 86.0981 259.604 86.6123C259.892 87.1264 260.336 87.5159 260.936 87.7807C261.536 88.0456 262.261 88.178 263.11 88.178C263.889 88.178 264.57 88.0728 265.154 87.8625C265.746 87.6522 266.218 87.3601 266.568 86.9862C266.927 86.6123 267.145 86.1838 267.223 85.7009C267.3 85.2569 267.226 84.8713 267.001 84.5441C266.782 84.2169 266.409 83.9326 265.879 83.6911C265.357 83.4496 264.671 83.2315 263.822 83.0368L261.427 82.4526C259.448 81.9696 257.949 81.1984 256.928 80.139C255.916 79.0796 255.557 77.6424 255.854 75.8274C256.103 74.3396 256.718 73.0387 257.7 71.9247C258.689 70.8108 259.939 69.9462 261.45 69.3308C262.969 68.7076 264.64 68.396 266.463 68.396C268.317 68.396 269.875 68.7115 271.137 69.3424C272.407 69.9656 273.322 70.8459 273.883 71.9832C274.451 73.1127 274.615 74.433 274.374 75.9442H268.835Z" fill="#EDF2EC"/>
<path d="M275.599 92.9804C273.729 92.9804 272.12 92.6688 270.773 92.0456C269.433 91.4146 268.444 90.55 267.805 89.4516C267.166 88.3455 266.968 87.068 267.209 85.6191H272.946C272.868 86.141 272.942 86.6045 273.168 87.0095C273.402 87.4068 273.756 87.7184 274.231 87.9443C274.714 88.1702 275.275 88.2832 275.914 88.2832C276.646 88.2832 277.316 88.1391 277.924 87.8508C278.539 87.5626 279.046 87.177 279.443 86.6941C279.84 86.2111 280.085 85.6814 280.179 85.105C280.272 84.5441 280.187 84.0728 279.922 83.6911C279.657 83.3094 279.252 83.0212 278.707 82.8265C278.169 82.6317 277.511 82.5343 276.732 82.5343H274.29L274.968 78.4214H277.164C277.881 78.4214 278.539 78.2889 279.139 78.0241C279.747 77.7592 280.249 77.3931 280.646 76.9257C281.044 76.4584 281.293 75.9209 281.394 75.3133C281.472 74.8303 281.433 74.4097 281.277 74.0513C281.121 73.6852 280.849 73.4048 280.459 73.21C280.078 73.0075 279.579 72.9062 278.964 72.9062C278.309 72.9062 277.678 73.0192 277.071 73.2451C276.471 73.471 275.965 73.7904 275.552 74.2032C275.139 74.6161 274.89 75.0952 274.804 75.6404H269.312C269.554 74.2227 270.146 72.9725 271.088 71.8897C272.031 70.7991 273.207 69.9462 274.617 69.3308C276.035 68.7076 277.577 68.396 279.244 68.396C281.005 68.396 282.492 68.7271 283.708 69.3892C284.931 70.0435 285.823 70.916 286.383 72.0065C286.952 73.0893 287.127 74.2694 286.909 75.547C286.683 76.9413 286.068 78.0202 285.063 78.7836C284.058 79.5392 282.808 80.0105 281.312 80.1974V80.3727C282.964 80.5752 284.226 81.2101 285.098 82.2773C285.978 83.3367 286.294 84.6298 286.045 86.1566C285.834 87.473 285.246 88.6454 284.28 89.6736C283.314 90.7019 282.08 91.512 280.576 92.104C279.081 92.6883 277.421 92.9804 275.599 92.9804Z" fill="#EDF2EC"/>
<defs>
<linearGradient id="paint0_linear_59002_2114" x1="59.6151" y1="0" x2="59.6151" y2="126.292" gradientUnits="userSpaceOnUse">
<stop stop-color="#03F9B0"/>
<stop offset="1" stop-color="#11EBD3"/>
</linearGradient>
<linearGradient id="paint1_linear_59002_2114" x1="59.6151" y1="0" x2="59.6151" y2="126.292" gradientUnits="userSpaceOnUse">
<stop stop-color="#13E5E4"/>
<stop offset="1" stop-color="#19DCFF"/>
</linearGradient>
<linearGradient id="paint2_linear_59002_2114" x1="59.6151" y1="0" x2="59.6151" y2="126.292" gradientUnits="userSpaceOnUse">
<stop stop-color="#0DEED0"/>
<stop offset="1" stop-color="#10E8D9"/>
</linearGradient>
<linearGradient id="paint3_linear_59002_2114" x1="20.7595" y1="67.5872" x2="20.7742" y2="100.378" gradientUnits="userSpaceOnUse">
<stop stop-color="#0EEDD0"/>
<stop offset="1" stop-color="#18E3E5"/>
</linearGradient>
</defs>
</svg>
